<svg width="137" height="52" viewBox="0 0 137 52" fill="none" xmlns="http://www.w3.org/2000/svg">
  <g filter="url(#filter0_d_12_270)">
    <path d="M27.9187 19.5172L26.866 43.5633L5.55196 18.2055L27.9187 19.5172Z" fill="#167E42" />
  </g>
  <path
    d="M56.6172 19.248L50.4732 36H46.3932L40.2492 19.248H43.8492L48.4572 32.568L53.0412 19.248H56.6172ZM70.9917 29.064C70.9917 29.544 70.9597 29.976 70.8957 30.36H61.1757C61.2557 31.32 61.5917 32.072 62.1837 32.616C62.7757 33.16 63.5037 33.432 64.3677 33.432C65.6157 33.432 66.5037 32.896 67.0317 31.824H70.6557C70.2717 33.104 69.5357 34.16 68.4477 34.992C67.3597 35.808 66.0237 36.216 64.4397 36.216C63.1597 36.216 62.0077 35.936 60.9837 35.376C59.9757 34.8 59.1837 33.992 58.6077 32.952C58.0477 31.912 57.7677 30.712 57.7677 29.352C57.7677 27.976 58.0477 26.768 58.6077 25.728C59.1677 24.688 59.9517 23.888 60.9597 23.328C61.9677 22.768 63.1277 22.488 64.4397 22.488C65.7037 22.488 66.8317 22.76 67.8237 23.304C68.8317 23.848 69.6077 24.624 70.1517 25.632C70.7117 26.624 70.9917 27.768 70.9917 29.064ZM67.5117 28.104C67.4957 27.24 67.1837 26.552 66.5757 26.04C65.9677 25.512 65.2237 25.248 64.3437 25.248C63.5117 25.248 62.8077 25.504 62.2317 26.016C61.6717 26.512 61.3277 27.208 61.1997 28.104H67.5117ZM76.8042 24.768C77.2362 24.064 77.7962 23.512 78.4842 23.112C79.1882 22.712 79.9882 22.512 80.8842 22.512V26.04H79.9962C78.9402 26.04 78.1402 26.288 77.5962 26.784C77.0682 27.28 76.8042 28.144 76.8042 29.376V36H73.4442V22.704H76.8042V24.768ZM84.8513 21.12C84.2593 21.12 83.7633 20.936 83.3633 20.568C82.9793 20.184 82.7873 19.712 82.7873 19.152C82.7873 18.592 82.9793 18.128 83.3633 17.76C83.7633 17.376 84.2593 17.184 84.8513 17.184C85.4433 17.184 85.9313 17.376 86.3153 17.76C86.7153 18.128 86.9153 18.592 86.9153 19.152C86.9153 19.712 86.7153 20.184 86.3153 20.568C85.9313 20.936 85.4433 21.12 84.8513 21.12ZM86.5073 22.704V36H83.1473V22.704H86.5073ZM95.923 25.464H93.595V36H90.187V25.464H88.675V22.704H90.187V22.032C90.187 20.4 90.651 19.2 91.579 18.432C92.507 17.664 93.907 17.304 95.779 17.352V20.184C94.963 20.168 94.395 20.304 94.075 20.592C93.755 20.88 93.595 21.4 93.595 22.152V22.704H95.923V25.464ZM99.8044 21.12C99.2124 21.12 98.7164 20.936 98.3164 20.568C97.9324 20.184 97.7404 19.712 97.7404 19.152C97.7404 18.592 97.9324 18.128 98.3164 17.76C98.7164 17.376 99.2124 17.184 99.8044 17.184C100.396 17.184 100.884 17.376 101.268 17.76C101.668 18.128 101.868 18.592 101.868 19.152C101.868 19.712 101.668 20.184 101.268 20.568C100.884 20.936 100.396 21.12 99.8044 21.12ZM101.46 22.704V36H98.1004V22.704H101.46ZM103.916 29.352C103.916 27.976 104.196 26.776 104.756 25.752C105.316 24.712 106.092 23.912 107.084 23.352C108.076 22.776 109.212 22.488 110.492 22.488C112.14 22.488 113.5 22.904 114.572 23.736C115.66 24.552 116.388 25.704 116.756 27.192H113.132C112.94 26.616 112.612 26.168 112.148 25.848C111.7 25.512 111.14 25.344 110.468 25.344C109.508 25.344 108.748 25.696 108.188 26.4C107.628 27.088 107.348 28.072 107.348 29.352C107.348 30.616 107.628 31.6 108.188 32.304C108.748 32.992 109.508 33.336 110.468 33.336C111.828 33.336 112.716 32.728 113.132 31.512H116.756C116.388 32.952 115.66 34.096 114.572 34.944C113.484 35.792 112.124 36.216 110.492 36.216C109.212 36.216 108.076 35.936 107.084 35.376C106.092 34.8 105.316 34 104.756 32.976C104.196 31.936 103.916 30.728 103.916 29.352ZM118.354 29.304C118.354 27.96 118.618 26.768 119.146 25.728C119.69 24.688 120.418 23.888 121.33 23.328C122.258 22.768 123.29 22.488 124.426 22.488C125.418 22.488 126.282 22.688 127.018 23.088C127.77 23.488 128.37 23.992 128.818 24.6V22.704H132.202V36H128.818V34.056C128.386 34.68 127.786 35.2 127.018 35.616C126.266 36.016 125.394 36.216 124.402 36.216C123.282 36.216 122.258 35.928 121.33 35.352C120.418 34.776 119.69 33.968 119.146 32.928C118.618 31.872 118.354 30.664 118.354 29.304ZM128.818 29.352C128.818 28.536 128.658 27.84 128.338 27.264C128.018 26.672 127.586 26.224 127.042 25.92C126.498 25.6 125.914 25.44 125.29 25.44C124.666 25.44 124.09 25.592 123.562 25.896C123.034 26.2 122.602 26.648 122.266 27.24C121.946 27.816 121.786 28.504 121.786 29.304C121.786 30.104 121.946 30.808 122.266 31.416C122.602 32.008 123.034 32.464 123.562 32.784C124.106 33.104 124.682 33.264 125.29 33.264C125.914 33.264 126.498 33.112 127.042 32.808C127.586 32.488 128.018 32.04 128.338 31.464C128.658 30.872 128.818 30.168 128.818 29.352Z"
    fill="black" />
  <g filter="url(#filter1_d_12_270)">
    <path d="M34.9312 14.6404L33.8785 38.6865L12.5644 13.3286L34.9312 14.6404Z" fill="#4BD184" />
  </g>
  <defs>
    <filter id="filter0_d_12_270" x="1.552" y="18.2054" width="30.3667" height="33.3579" filterUnits="userSpaceOnUse"
      color-interpolation-filters="sRGB">
      <feFlood flood-opacity="0" result="BackgroundImageFix" />
      <feColorMatrix in="SourceAlpha" type="matrix" values="0 0 0 0 0 0 0 0 0 0 0 0 0 0 0 0 0 0 127 0"
        result="hardAlpha" />
      <feOffset dy="4" />
      <feGaussianBlur stdDeviation="2" />
      <feComposite in2="hardAlpha" operator="out" />
      <feColorMatrix type="matrix" values="0 0 0 0 0 0 0 0 0 0 0 0 0 0 0 0 0 0 0.25 0" />
      <feBlend mode="normal" in2="BackgroundImageFix" result="effect1_dropShadow_12_270" />
      <feBlend mode="normal" in="SourceGraphic" in2="effect1_dropShadow_12_270" result="shape" />
    </filter>
    <filter id="filter1_d_12_270" x="7.56445" y="12.3286" width="32.3667" height="35.3579" filterUnits="userSpaceOnUse"
      color-interpolation-filters="sRGB">
      <feFlood flood-opacity="0" result="BackgroundImageFix" />
      <feColorMatrix in="SourceAlpha" type="matrix" values="0 0 0 0 0 0 0 0 0 0 0 0 0 0 0 0 0 0 127 0"
        result="hardAlpha" />
      <feOffset dy="4" />
      <feGaussianBlur stdDeviation="2.5" />
      <feComposite in2="hardAlpha" operator="out" />
      <feColorMatrix type="matrix" values="0 0 0 0 0 0 0 0 0 0 0 0 0 0 0 0 0 0 0.25 0" />
      <feBlend mode="normal" in2="BackgroundImageFix" result="effect1_dropShadow_12_270" />
      <feBlend mode="normal" in="SourceGraphic" in2="effect1_dropShadow_12_270" result="shape" />
    </filter>
  </defs>
</svg>