<svg width="338" height="139" viewBox="0 0 338 139" fill="none" xmlns="http://www.w3.org/2000/svg">
  <path
    d="M54.8253 68.328L38.4413 113H27.5613L11.1773 68.328H20.7773L33.0653 103.848L45.2893 68.328H54.8253ZM93.1573 94.504C93.1573 95.784 93.0719 96.936 92.9013 97.96H66.9813C67.1946 100.52 68.0906 102.525 69.6693 103.976C71.2479 105.427 73.1893 106.152 75.4933 106.152C78.8213 106.152 81.1893 104.723 82.5973 101.864H92.2613C91.2373 105.277 89.2746 108.093 86.3733 110.312C83.4719 112.488 79.9093 113.576 75.6853 113.576C72.2719 113.576 69.1999 112.829 66.4693 111.336C63.7813 109.8 61.6693 107.645 60.1333 104.872C58.6399 102.099 57.8932 98.8987 57.8932 95.272C57.8932 91.6027 58.6399 88.3813 60.1333 85.608C61.6266 82.8347 63.7173 80.7013 66.4053 79.208C69.0933 77.7147 72.1866 76.968 75.6853 76.968C79.0559 76.968 82.0639 77.6933 84.7093 79.144C87.3973 80.5947 89.4666 82.664 90.9173 85.352C92.4106 87.9973 93.1573 91.048 93.1573 94.504ZM83.8773 91.944C83.8346 89.64 83.0026 87.8053 81.3813 86.44C79.7599 85.032 77.7759 84.328 75.4293 84.328C73.2106 84.328 71.3333 85.0107 69.7973 86.376C68.3039 87.6987 67.3866 89.5547 67.0453 91.944H83.8773ZM108.657 83.048C109.809 81.1707 111.303 79.6987 113.137 78.632C115.015 77.5653 117.148 77.032 119.537 77.032V86.44H117.169C114.353 86.44 112.22 87.1013 110.769 88.424C109.361 89.7467 108.657 92.0507 108.657 95.336V113H99.6973V77.544H108.657V83.048ZM130.116 73.32C128.538 73.32 127.215 72.8293 126.148 71.848C125.124 70.824 124.612 69.5653 124.612 68.072C124.612 66.5787 125.124 65.3413 126.148 64.36C127.215 63.336 128.538 62.824 130.116 62.824C131.695 62.824 132.996 63.336 134.02 64.36C135.087 65.3413 135.62 66.5787 135.62 68.072C135.62 69.5653 135.087 70.824 134.02 71.848C132.996 72.8293 131.695 73.32 130.116 73.32ZM134.532 77.544V113H125.572V77.544H134.532ZM159.641 84.904H153.433V113H144.345V84.904H140.313V77.544H144.345V75.752C144.345 71.4 145.582 68.2 148.057 66.152C150.531 64.104 154.265 63.144 159.257 63.272V70.824C157.081 70.7813 155.566 71.144 154.713 71.912C153.859 72.68 153.433 74.0667 153.433 76.072V77.544H159.641V84.904ZM169.991 73.32C168.413 73.32 167.09 72.8293 166.023 71.848C164.999 70.824 164.487 69.5653 164.487 68.072C164.487 66.5787 164.999 65.3413 166.023 64.36C167.09 63.336 168.413 62.824 169.991 62.824C171.57 62.824 172.871 63.336 173.895 64.36C174.962 65.3413 175.495 66.5787 175.495 68.072C175.495 69.5653 174.962 70.824 173.895 71.848C172.871 72.8293 171.57 73.32 169.991 73.32ZM174.407 77.544V113H165.447V77.544H174.407ZM180.956 95.272C180.956 91.6027 181.702 88.4027 183.196 85.672C184.689 82.8987 186.758 80.7653 189.404 79.272C192.049 77.736 195.078 76.968 198.492 76.968C202.886 76.968 206.513 78.0773 209.372 80.296C212.273 82.472 214.214 85.544 215.196 89.512H205.532C205.02 87.976 204.145 86.7813 202.908 85.928C201.713 85.032 200.22 84.584 198.428 84.584C195.868 84.584 193.841 85.5227 192.348 87.4C190.854 89.2347 190.108 91.8587 190.108 95.272C190.108 98.6427 190.854 101.267 192.348 103.144C193.841 104.979 195.868 105.896 198.428 105.896C202.054 105.896 204.422 104.275 205.532 101.032H215.196C214.214 104.872 212.273 107.923 209.372 110.184C206.47 112.445 202.844 113.576 198.492 113.576C195.078 113.576 192.049 112.829 189.404 111.336C186.758 109.8 184.689 107.667 183.196 104.936C181.702 102.163 180.956 98.9413 180.956 95.272ZM219.456 95.144C219.456 91.56 220.16 88.3813 221.568 85.608C223.018 82.8347 224.96 80.7013 227.392 79.208C229.866 77.7147 232.618 76.968 235.648 76.968C238.293 76.968 240.597 77.5013 242.56 78.568C244.565 79.6347 246.165 80.9787 247.36 82.6V77.544H256.384V113H247.36V107.816C246.208 109.48 244.608 110.867 242.56 111.976C240.554 113.043 238.229 113.576 235.584 113.576C232.597 113.576 229.866 112.808 227.392 111.272C224.96 109.736 223.018 107.581 221.568 104.808C220.16 101.992 219.456 98.7707 219.456 95.144ZM247.36 95.272C247.36 93.096 246.933 91.24 246.08 89.704C245.226 88.1253 244.074 86.9307 242.624 86.12C241.173 85.2667 239.616 84.84 237.952 84.84C236.288 84.84 234.752 85.2453 233.344 86.056C231.936 86.8667 230.784 88.0613 229.888 89.64C229.034 91.176 228.608 93.0107 228.608 95.144C228.608 97.2773 229.034 99.1547 229.888 100.776C230.784 102.355 231.936 103.571 233.344 104.424C234.794 105.277 236.33 105.704 237.952 105.704C239.616 105.704 241.173 105.299 242.624 104.488C244.074 103.635 245.226 102.44 246.08 100.904C246.933 99.3253 247.36 97.448 247.36 95.272Z"
    fill="black" />
  <g filter="url(#filter0_d_12_264)">
    <path d="M290.675 44.0224L288.123 98.2602L236.458 41.0637L290.675 44.0224Z" fill="#167E42" />
  </g>
  <g filter="url(#filter1_d_12_264)">
    <path d="M307.675 33.0224L305.123 87.2602L253.458 30.0637L307.675 33.0224Z" fill="#4BD184" />
  </g>
  <defs>
    <filter id="filter0_d_12_264" x="232.458" y="41.0637" width="62.2172" height="65.1965" filterUnits="userSpaceOnUse"
      color-interpolation-filters="sRGB">
      <feFlood flood-opacity="0" result="BackgroundImageFix" />
      <feColorMatrix in="SourceAlpha" type="matrix" values="0 0 0 0 0 0 0 0 0 0 0 0 0 0 0 0 0 0 127 0"
        result="hardAlpha" />
      <feOffset dy="4" />
      <feGaussianBlur stdDeviation="2" />
      <feComposite in2="hardAlpha" operator="out" />
      <feColorMatrix type="matrix" values="0 0 0 0 0 0 0 0 0 0 0 0 0 0 0 0 0 0 0.25 0" />
      <feBlend mode="normal" in2="BackgroundImageFix" result="effect1_dropShadow_12_264" />
      <feBlend mode="normal" in="SourceGraphic" in2="effect1_dropShadow_12_264" result="shape" />
    </filter>
    <filter id="filter1_d_12_264" x="248.458" y="29.0637" width="64.2172" height="67.1965" filterUnits="userSpaceOnUse"
      color-interpolation-filters="sRGB">
      <feFlood flood-opacity="0" result="BackgroundImageFix" />
      <feColorMatrix in="SourceAlpha" type="matrix" values="0 0 0 0 0 0 0 0 0 0 0 0 0 0 0 0 0 0 127 0"
        result="hardAlpha" />
      <feOffset dy="4" />
      <feGaussianBlur stdDeviation="2.5" />
      <feComposite in2="hardAlpha" operator="out" />
      <feColorMatrix type="matrix" values="0 0 0 0 0 0 0 0 0 0 0 0 0 0 0 0 0 0 0.25 0" />
      <feBlend mode="normal" in2="BackgroundImageFix" result="effect1_dropShadow_12_264" />
      <feBlend mode="normal" in="SourceGraphic" in2="effect1_dropShadow_12_264" result="shape" />
    </filter>
  </defs>
</svg>